# xmcd
#
# Track frame offsets:
#	150
#	14555
#	31160
#	44870
#	58505
#	74452
#	93285
#	109010
#	126675
#	143212
#	159337
#	173685
#	189225
#	204210
#
# Disc length: 2911 seconds
#
# Revision: 0
# Processed by: cddbd v1.5.1PL2 Copyright (c) Steve Scherf et al.
# Submitted via: dBpowerAMP V4.0
#
DISCID=c20b5d0e
DTITLE=Vários - Música gaúcha para todos
DYEAR=2002
DGENRE=Undefined
TTITLE0=Um dia de rodeio - Tchê Garotos
TTITLE1=Baile de corredor - Candieiro
TTITLE2=Bica que bica - Tchê Barbaridade
TTITLE3=Baita baile - Tchê Guri
TTITLE4=Fandango em Soledade - João Luiz Corrêa
TTITLE5=Ginete de fronteira - Os Serranos
TTITLE6=Cantando o Rio Grande - Os Tiranos
TTITLE7=Deus gaúcho - Grupo Rodeio
TTITLE8=Nossa vanera - Grupo Minuano
TTITLE9=Saudade morena - Os Nativos
TTITLE10=Uma negrinha me esperando - Tchê Barbaridade
TTITLE11=De Barretos à Vacaria - Osvaldir e Carlos Magrão
TTITLE12=De alma campeira - Candieiro
TTITLE13=Sacudindo a Poeira - João Luiz Corrêa
EXTD=Música gaúcha para todos\nCD do BIG
EXTT0=
EXTT1=
EXTT2=
EXTT3=
EXTT4=
EXTT5=
EXTT6=
EXTT7=
EXTT8=
EXTT9=
EXTT10=
EXTT11=
EXTT12=
EXTT13=
PLAYORDER=
